<svg version="1.1" viewBox="0.0 0.0 1280.0 720.0" fill="none" stroke="none" stroke-linecap="square" stroke-miterlimit="10" xmlns:xlink="http://www.w3.org/1999/xlink" xmlns="http://www.w3.org/2000/svg"><clipPath id="p1.0"><path d="m0 0l1280.0 0l0 720.0l-1280.0 0l0 -720.0z" clip-rule="nonzero"/></clipPath><g clip-path="url(#p1.0)"><path fill="#ffffff" d="m0 0l1280.0 0l0 720.0l-1280.0 0z" fill-rule="evenodd"/><path fill="#000000" fill-opacity="0.0" d="m160.0 296.17404l960.0 0l0 127.653564l-960.0 0z" fill-rule="evenodd"/><path fill="#000000" d="m284.70023 397.83447q-10.3125 0 -18.46875 -4.6875q-8.140625 -4.6875 -12.859375 -13.59375q-4.71875 -8.90625 -4.71875 -21.515625q0 -12.65625 4.734375 -21.578125q4.75 -8.9375 12.921875 -13.625q8.171875 -4.6875 18.390625 -4.6875q6.609375 0 12.3125 1.859375q5.703125 1.84375 10.125 5.390625q4.4375 3.53125 7.25 8.671875q2.8125 5.125 3.6875 11.625l-16.09375 0q-0.515625 -3.171875 -2.0 -5.640625q-1.484375 -2.484375 -3.703125 -4.21875q-2.203125 -1.75 -5.078125 -2.65625q-2.859375 -0.921875 -6.1875 -0.921875q-6.046875 0 -10.625 3.03125q-4.578125 3.015625 -7.078125 8.78125q-2.5 5.75 -2.5 13.96875q0 8.390625 2.546875 14.125q2.546875 5.71875 7.078125 8.640625q4.53125 2.90625 10.515625 2.90625q3.34375 0 6.171875 -0.90625q2.84375 -0.90625 5.109375 -2.65625q2.265625 -1.75 3.75 -4.25q1.484375 -2.5 2.0625 -5.625l16.09375 0q-0.625 5.375 -3.203125 10.328125q-2.578125 4.9375 -6.859375 8.84375q-4.265625 3.90625 -10.15625 6.15625q-5.875 2.234375 -13.21875 2.234375zm79.05478 0q-10.265625 0 -18.46875 -4.6875q-8.203125 -4.6875 -12.96875 -13.59375q-4.765625 -8.90625 -4.765625 -21.515625q0 -12.65625 4.765625 -21.578125q4.765625 -8.9375 12.96875 -13.625q8.203125 -4.6875 18.46875 -4.6875q10.3125 0 18.484375 4.6875q8.171875 4.6875 12.9375 13.625q4.765625 8.921875 4.765625 21.578125q0 12.609375 -4.765625 21.515625q-4.765625 8.90625 -12.9375 13.59375q-8.171875 4.6875 -18.484375 4.6875zm0 -14.125q6.03125 0 10.53125 -2.9375q4.515625 -2.9375 7.015625 -8.6875q2.5 -5.765625 2.5 -14.046875q0 -8.375 -2.5 -14.125q-2.5 -5.765625 -7.015625 -8.703125q-4.5 -2.953125 -10.53125 -2.953125q-6.0 0 -10.53125 2.96875q-4.515625 2.96875 -7.015625 8.734375q-2.5 5.75 -2.5 14.078125q0 8.28125 2.5 14.015625q2.5 5.71875 7.015625 8.6875q4.53125 2.96875 10.53125 2.96875zm48.117004 13.078125l0 -77.59375l24.375 0l12.59375 35.625q0.78125 2.5 1.796875 6.453125q1.015625 3.953125 2.0625 8.546875q1.046875 4.578125 1.953125 8.90625q0.90625 4.3125 1.484375 7.484375l-3.078125 0q0.578125 -3.125 1.484375 -7.421875q0.921875 -4.296875 1.953125 -8.875q1.046875 -4.578125 2.0625 -8.578125q1.015625 -4.015625 1.796875 -6.515625l12.390625 -35.625l24.484375 0l0 77.59375l-15.984375 0l0 -36.609375q0 -2.5 0.09375 -6.296875q0.109375 -3.8125 0.203125 -8.203125q0.109375 -4.40625 0.21875 -8.859375q0.109375 -4.453125 0.15625 -8.40625l0.984375 0q-0.984375 4.3125 -2.1875 8.921875q-1.1875 4.609375 -2.421875 8.9375q-1.21875 4.328125 -2.3125 7.953125q-1.09375 3.609375 -1.875 5.953125l-12.859375 36.609375l-13.390625 0l-13.078125 -36.609375q-0.78125 -2.34375 -1.875 -5.90625q-1.09375 -3.578125 -2.3125 -7.890625q-1.21875 -4.328125 -2.46875 -8.9375q-1.25 -4.609375 -2.390625 -9.03125l1.25 0q0.046875 3.75 0.140625 8.171875q0.109375 4.421875 0.234375 8.875q0.140625 4.453125 0.21875 8.28125q0.078125 3.828125 0.078125 6.4375l0 36.609375l-15.78125 0zm115.25592 -77.59375l0 77.59375l-15.8906555 0l0 -77.59375l15.8906555 0zm14.054321 77.59375l0 -77.59375l17.703125 0l24.53125 39.265625q1.875 3.015625 3.796875 6.5625q1.9375 3.546875 3.9375 7.875q2.0 4.3125 3.984375 9.71875l-1.609375 0q-0.375 -4.3125 -0.65625 -9.203125q-0.28125 -4.90625 -0.5 -9.375q-0.203125 -4.484375 -0.203125 -7.609375l0 -37.234375l16.25 0l0 77.59375l-17.765625 0l-22.28125 -35.625q-2.453125 -4.0 -4.546875 -7.78125q-2.078125 -3.78125 -4.34375 -8.359375q-2.25 -4.578125 -5.375 -10.890625l2.03125 0q0.3125 5.625 0.625 10.78125q0.3125 5.15625 0.484375 9.359375q0.1875 4.1875 0.1875 6.84375l0 35.671875l-16.25 0zm115.66919 1.046875q-10.890625 0 -19.09375 -4.8125q-8.203125 -4.828125 -12.8125 -13.75q-4.609375 -8.9375 -4.609375 -21.171875q0 -12.609375 4.796875 -21.53125q4.796875 -8.9375 12.96875 -13.671875q8.171875 -4.75 18.375 -4.75q6.5625 0 12.21875 1.90625q5.65625 1.890625 10.046875 5.390625q4.40625 3.484375 7.1875 8.25q2.796875 4.765625 3.625 10.5l-16.140625 0q-0.84375 -2.765625 -2.328125 -4.96875q-1.484375 -2.21875 -3.59375 -3.78125q-2.109375 -1.5625 -4.8125 -2.375q-2.703125 -0.8125 -5.9375 -0.8125q-5.984375 0 -10.578125 3.0q-4.578125 3.0 -7.125 8.734375q-2.546875 5.71875 -2.546875 13.953125q0 8.21875 2.515625 13.984375q2.53125 5.75 7.109375 8.765625q4.578125 3.015625 10.828125 3.015625q5.625 0 9.640625 -2.03125q4.015625 -2.03125 6.171875 -5.78125q2.15625 -3.75 2.15625 -8.84375l3.34375 0.46875l-20.21875 0l0 -12.078125l32.296875 0l0 9.6875q0 10.203125 -4.328125 17.515625q-4.3125 7.3125 -11.875 11.25q-7.546875 3.9375 -17.28125 3.9375zm99.364624 0.09375q-9.328125 0 -16.234375 -2.859375q-6.890625 -2.859375 -10.75 -8.484375q-3.84375 -5.625 -4.0625 -13.859375l15.46875 0q0.3125 3.90625 2.34375 6.546875q2.03125 2.625 5.40625 3.921875q3.390625 1.296875 7.671875 1.296875q4.265625 0 7.40625 -1.21875q3.15625 -1.21875 4.921875 -3.453125q1.78125 -2.25 1.78125 -5.21875q0 -2.65625 -1.59375 -4.453125q-1.578125 -1.796875 -4.546875 -3.09375q-2.96875 -1.296875 -7.25 -2.296875l-8.53125 -2.125q-9.84375 -2.40625 -15.421875 -7.53125q-5.5625 -5.125 -5.5625 -13.5625q0 -7.03125 3.765625 -12.296875q3.78125 -5.265625 10.359375 -8.171875q6.59375 -2.921875 15.03125 -2.921875q8.59375 0 15.0 2.953125q6.40625 2.9375 10.0 8.171875q3.59375 5.234375 3.703125 12.046875l-15.375 0q-0.40625 -4.6875 -3.984375 -7.234375q-3.5625 -2.546875 -9.5 -2.546875q-4.015625 0 -6.875 1.140625q-2.859375 1.140625 -4.375 3.171875q-1.5 2.03125 -1.5 4.640625q0 2.859375 1.734375 4.765625q1.75 1.90625 4.578125 3.078125q2.84375 1.171875 6.125 1.953125l7.03125 1.71875q4.890625 1.09375 9.109375 2.96875q4.21875 1.875 7.390625 4.609375q3.1875 2.734375 4.921875 6.484375q1.75 3.75 1.75 8.640625q0 7.03125 -3.546875 12.265625q-3.53125 5.234375 -10.25 8.09375q-6.71875 2.859375 -16.140625 2.859375zm75.461914 -0.09375q-10.265625 0 -18.46875 -4.6875q-8.203125 -4.6875 -12.96875 -13.59375q-4.765625 -8.90625 -4.765625 -21.515625q0 -12.65625 4.765625 -21.578125q4.765625 -8.9375 12.96875 -13.625q8.203125 -4.6875 18.46875 -4.6875q10.3125 0 18.484375 4.6875q8.171875 4.6875 12.9375 13.625q4.765625 8.921875 4.765625 21.578125q0 12.609375 -4.765625 21.515625q-4.765625 8.90625 -12.9375 13.59375q-8.171875 4.6875 -18.484375 4.6875zm0 -14.125q6.03125 0 10.53125 -2.9375q4.515625 -2.9375 7.015625 -8.6875q2.5 -5.765625 2.5 -14.046875q0 -8.375 -2.5 -14.125q-2.5 -5.765625 -7.015625 -8.703125q-4.5 -2.953125 -10.53125 -2.953125q-6.0 0 -10.53125 2.96875q-4.515625 2.96875 -7.015625 8.734375q-2.5 5.75 -2.5 14.078125q0 8.28125 2.5 14.015625q2.5 5.71875 7.015625 8.6875q4.53125 2.96875 10.53125 2.96875zm82.17944 14.125q-10.265625 0 -18.46875 -4.6875q-8.203125 -4.6875 -12.96875 -13.59375q-4.765625 -8.90625 -4.765625 -21.515625q0 -12.65625 4.765625 -21.578125q4.765625 -8.9375 12.96875 -13.625q8.203125 -4.6875 18.46875 -4.6875q10.3125 0 18.484375 4.6875q8.171875 4.6875 12.9375 13.625q4.765625 8.921875 4.765625 21.578125q0 12.609375 -4.765625 21.515625q-4.765625 8.90625 -12.9375 13.59375q-8.171875 4.6875 -18.484375 4.6875zm0 -14.125q6.03125 0 10.53125 -2.9375q4.515625 -2.9375 7.015625 -8.6875q2.5 -5.765625 2.5 -14.046875q0 -8.375 -2.5 -14.125q-2.5 -5.765625 -7.015625 -8.703125q-4.5 -2.953125 -10.53125 -2.953125q-6.0 0 -10.53125 2.96875q-4.515625 2.96875 -7.015625 8.734375q-2.5 5.75 -2.5 14.078125q0 8.28125 2.5 14.015625q2.5 5.71875 7.015625 8.6875q4.53125 2.96875 10.53125 2.96875zm48.116943 13.078125l0 -77.59375l17.703125 0l24.53125 39.265625q1.875 3.015625 3.796875 6.5625q1.9375 3.546875 3.9375 7.875q2.0 4.3125 3.984375 9.71875l-1.609375 0q-0.375 -4.3125 -0.65625 -9.203125q-0.28125 -4.90625 -0.5 -9.375q-0.203125 -4.484375 -0.203125 -7.609375l0 -37.234375l16.25 0l0 77.59375l-17.765625 0l-22.28125 -35.625q-2.453125 -4.0 -4.546875 -7.78125q-2.078125 -3.78125 -4.34375 -8.359375q-2.25 -4.578125 -5.375 -10.890625l2.03125 0q0.3125 5.625 0.625 10.78125q0.3125 5.15625 0.484375 9.359375q0.1875 4.1875 0.1875 6.84375l0 35.671875l-16.25 0z" fill-rule="nonzero"/></g></svg>