<svg width="435" height="434" viewBox="0 0 435 434" fill="none" xmlns="http://www.w3.org/2000/svg">
<path d="M166.675 50.156C183.077 33.7538 200.837 21.3798 219.954 13.0785C239.06 4.76618 258.522 0.459793 278.374 0.148119C298.205 -0.163555 317.577 3.5197 336.485 11.2089C355.379 18.8871 372.727 30.627 388.515 46.4173C404.295 62.1964 415.98 79.4887 423.568 98.2944C431.148 117.089 434.775 136.518 434.474 156.559C434.152 176.601 429.734 196.284 421.231 215.604C412.709 234.921 400.145 252.892 383.531 269.505L300.69 352.348C297.566 355.472 292.5 355.472 289.376 352.348L82.5864 145.558C79.4622 142.434 79.4622 137.368 82.5864 134.244L166.675 50.156ZM353.619 235.231C364.002 224.85 371.791 213.322 376.989 200.648C382.174 187.985 384.667 174.898 384.467 161.389C384.256 147.891 381.394 134.549 375.899 121.351C370.39 108.165 362.033 95.9576 350.815 84.7409C339.388 73.3127 327.024 64.9116 313.738 59.5036C300.441 54.1065 286.932 51.3021 273.234 51.0906C259.513 50.8792 246.227 53.4834 233.352 58.8803C220.467 64.2882 208.626 72.3893 197.833 83.1831L152.391 128.625C149.266 131.749 149.266 136.814 152.391 139.938L294.995 282.544C298.119 285.668 303.185 285.668 306.309 282.543L353.619 235.231Z" fill="#9B9B9B"/>
<path d="M87.3684 129.451C103.782 113.038 121.531 100.675 140.648 92.374C159.754 84.0617 179.228 79.7441 199.068 79.4436C218.899 79.132 238.271 82.8155 257.176 90.5047C276.073 98.1829 293.421 109.923 309.211 125.713C324.989 141.492 336.674 158.784 344.262 177.59C351.841 196.386 355.48 215.802 355.167 235.855C354.846 255.897 350.438 275.569 341.927 294.899C333.403 314.216 320.839 332.187 304.225 348.802L221.395 431.632C218.27 434.756 213.205 434.756 210.081 431.632L3.29114 224.842C0.166941 221.718 0.166955 216.653 3.29116 213.528L87.3684 129.451ZM274.315 314.529C284.696 304.146 292.487 292.617 297.683 279.943C302.879 267.269 305.372 254.183 305.161 240.685C304.949 227.185 302.099 213.833 296.592 200.646C291.084 187.461 282.727 175.254 271.509 164.037C260.081 152.609 247.729 144.196 234.432 138.799C221.134 133.402 207.636 130.587 193.927 130.387C180.207 130.175 166.92 132.779 154.046 138.176C141.171 143.573 129.331 151.674 118.526 162.479L73.0843 207.921C69.9601 211.045 69.9601 216.11 73.0843 219.234L215.689 361.839C218.813 364.963 223.878 364.963 227.003 361.839L274.315 314.529Z" fill="white"/>
</svg>
