<svg xmlns="http://www.w3.org/2000/svg" version="1.1" xmlns:xlink="http://www.w3.org/1999/xlink" xmlns:svgjs="http://svgjs.dev/svgjs" width="1024" height="1024"><svg id="SvgjsSvg1011" xmlns="http://www.w3.org/2000/svg" viewBox="0 0 1024 1024"><path d="M461.76,232.82v542.45s-81.52,0-81.52,0v-54.09c-25.14,43.43-67.04,64.76-125.71,64.76-55.62,0-99.81-18.28-132.57-56.38-32.76-37.33-48.76-87.62-48.76-151.61,0-62.47,16-112.76,48-150.09,32-37.33,75.42-56.38,130.28-56.38,54.85,0,96.76,20.57,124.95,61.71v-200.37s85.33,0,85.33,0ZM267.48,441.58c-33.52,0-59.43,12.19-78.47,36.57-19.05,24.38-28.19,57.14-28.19,98.28,0,43.43,9.14,77.71,28.95,102.09,19.81,25.14,46.47,37.33,80.76,37.33,33.52,0,60.19-12.19,79.23-36.57,19.05-24.38,28.95-57.9,28.95-101.33,0-42.66-9.9-76.19-29.71-100.57-19.81-23.62-46.47-35.81-81.52-35.81ZM950.79,236.54l-115.05,543.22h-29.71s16.76-76.19,16.76-76.19l6.86-22.09c-35.04,73.14-87.61,109.71-157.7,109.71-44.95,0-80-13.71-105.9-41.14-25.14-27.43-38.09-64.76-38.09-112.76,0-41.14,8.38-81.52,23.62-120.38,16-38.86,40.38-71.62,73.14-99.04,32.76-26.67,70.85-40.38,113.52-40.38,37.33,0,67.05,9.9,89.9,28.95,22.85,19.05,36.57,45.71,40.38,80,.76-2.29,1.52-7.62,3.05-16,1.52-7.62,3.81-21.33,8.38-39.62l40.38-194.28h30.48ZM739.75,404.91c-38.09,0-70.85,12.19-99.8,36.57-28.19,24.38-48.76,53.33-61.71,87.62-12.95,34.28-19.81,70.09-19.81,107.42,0,41.14,10.67,72.38,31.23,95.23,21.33,22.86,50.29,34.28,87.61,34.28,28.19,0,54.09-8.38,76.95-24.38,23.62-16,42.67-36.57,56.38-60.95,13.72-25.14,24.38-51.81,32-79.23,7.62-27.43,11.43-54.09,11.43-80,0-35.81-9.91-64-30.48-85.33-20.57-21.33-48.76-31.24-83.81-31.24Z" style="fill:#1a1a1a;"></path></svg><style>@media (prefers-color-scheme: light) { :root { filter: none; } }
@media (prefers-color-scheme: dark) { :root { filter: none; } }
</style></svg>