<?xml version="1.0" encoding="UTF-8"?><svg id="b" xmlns="http://www.w3.org/2000/svg" viewBox="0 0 745.43 149.53"><g id="c"><path d="M104.61,0v146.05h-21.95v-14.56c-6.77,11.69-18.05,17.44-33.84,17.44-14.97,0-26.87-4.92-35.69-15.18C4.31,123.69,0,110.15,0,92.92s4.31-30.36,12.92-40.41c8.61-10.05,20.31-15.18,35.08-15.18s26.05,5.54,33.64,16.61V0h22.97ZM52.31,56.2c-9.03,0-16,3.28-21.13,9.85-5.13,6.56-7.59,15.38-7.59,26.46,0,11.69,2.46,20.92,7.79,27.49,5.33,6.77,12.51,10.05,21.74,10.05s16.2-3.28,21.33-9.85c5.13-6.56,7.79-15.59,7.79-27.28s-2.67-20.51-8-27.08c-5.33-6.36-12.51-9.64-21.95-9.64ZM224.47,113.02c-2.67,11.49-8.41,20.51-17.02,26.87-8.61,6.56-19.08,9.64-30.97,9.64-16,0-28.72-5.13-38.15-15.38-9.44-10.26-13.95-23.59-13.95-39.79s4.72-30.15,14.36-41.02c9.64-10.67,21.95-16.2,36.92-16.2s27.69,5.33,36.72,16c9.02,10.67,13.54,25.02,13.54,43.28v2.46h-78.15c.21,10.67,2.87,19.08,8,24.82,4.92,5.74,12.1,8.62,21.13,8.62,6.36,0,11.49-1.44,15.59-4.51,4.1-3.08,7.18-8,9.64-14.77h22.36ZM202.52,83.28c-.82-8.82-3.49-15.79-8.41-20.92-4.92-5.13-11.08-7.79-18.67-7.79s-13.95,2.46-18.66,7.38c-4.72,4.92-7.59,12.1-8.61,21.33h54.36ZM233.02,40.2h25.43l27.08,81.43,26.05-81.43h24.2l-37.95,106.05h-26.25l-38.56-106.05ZM455.27,0l-30.97,146.25h-8l4.51-20.51,1.85-5.95c-9.43,19.69-23.59,29.54-42.46,29.54-12.1,0-21.54-3.69-28.51-11.08-6.77-7.38-10.26-17.44-10.26-30.36,0-11.08,2.26-21.95,6.36-32.41,4.31-10.46,10.87-19.28,19.69-26.67,8.82-7.18,19.08-10.87,30.56-10.87,10.05,0,18.05,2.67,24.2,7.79s9.85,12.31,10.87,21.54c.21-.62.41-2.05.82-4.31.41-2.05,1.03-5.74,2.26-10.67L447.07,0h8.21ZM398.45,45.33c-10.26,0-19.08,3.28-26.87,9.85-7.59,6.56-13.13,14.36-16.61,23.59-3.49,9.23-5.33,18.87-5.33,28.92,0,11.08,2.87,19.49,8.41,25.64,5.74,6.15,13.54,9.23,23.59,9.23,7.59,0,14.56-2.26,20.72-6.56,6.36-4.31,11.49-9.85,15.18-16.41,3.69-6.77,6.56-13.95,8.61-21.33,2.05-7.38,3.08-14.56,3.08-21.54,0-9.64-2.67-17.23-8.21-22.97-5.54-5.74-13.13-8.41-22.56-8.41ZM463.61,71.18c3.08-11.49,8-19.69,14.77-25.02,6.77-5.33,16.2-7.79,28.51-7.79,10.87,0,19.28,2.05,25.44,6.56,5.95,4.31,9.03,10.46,9.03,18.46,0,3.69-1.03,9.85-2.87,18.05l-7.39,32.2c-2.46,9.44-3.49,16.2-3.49,19.9,0,4.31,1.85,6.56,5.74,6.56,1.23,0,3.49-.41,6.77-1.03l-1.23,6.77c-3.69.82-6.36,1.23-8,1.23-7.18,0-10.67-3.9-10.67-11.28,0-2.46.41-5.74,1.44-9.44-9.44,15.18-22.97,22.97-41.02,22.97-10.05,0-17.85-2.67-23.59-7.59-5.74-5.13-8.41-12.1-8.41-20.92,0-5.54,1.23-10.67,4.1-15.38,2.67-4.51,6.36-8.2,11.28-11.08,4.1-2.26,8.82-3.9,14.15-4.92,5.33-1.03,13.74-1.85,25.44-2.67,14.15-.82,22.77-3.08,25.64-6.36,2.46-2.87,3.9-8,3.9-15.38,0-12.92-8.82-19.49-26.26-19.49-9.85,0-17.64,2.05-23.18,6.15-5.54,4.1-9.44,10.67-11.9,19.49h-8.21ZM529.46,87.18c-2.46,2.05-5.54,3.49-9.64,4.31-2.87.62-10.26,1.23-22.36,2.05-12.31.82-21.33,2.46-27.08,5.33-4.1,1.64-7.38,4.51-9.85,8.61-2.46,3.9-3.69,8.2-3.69,12.92,0,6.97,2.26,12.31,6.77,16.2,4.51,3.9,10.67,5.74,18.67,5.74s15.38-2.05,22.15-6.15c6.56-4.1,11.9-9.85,15.59-17.03,2.26-4.92,4.51-12.1,6.97-21.54l2.46-10.46ZM640.63,71.59h-8.41v-3.08c0-7.79-2.26-13.54-6.97-17.23-4.51-3.69-11.9-5.54-21.74-5.54-8.61,0-15.59,1.85-20.51,5.33-4.92,3.69-7.59,8.62-7.59,14.77,0,2.05.41,4.1.82,5.74.62,1.85,1.64,3.49,3.08,4.72,1.23,1.44,2.46,2.67,3.69,3.49,1.03,1.03,2.67,2.05,4.92,3.08,2.26,1.03,3.9,1.85,5.13,2.26,1.03.41,2.87,1.23,5.54,2.05,2.67.82,4.31,1.44,5.13,1.64,4.51,1.64,8,3.08,10.87,4.31,2.67,1.23,5.74,3.08,9.03,5.33,3.28,2.46,5.74,5.13,7.38,8.41,1.64,3.28,2.26,6.97,2.26,11.08,0,10.46-4.1,18.26-12.31,23.38-8.2,5.33-17.64,7.8-28.51,7.8-12.31,0-21.95-2.87-28.92-8.62-6.77-5.74-10.26-13.74-10.26-24.2,0-.21.21-2.05.41-5.33h8.21c-.21,3.28-.41,5.13-.41,5.13,0,8.41,2.87,14.77,8.2,19.28,5.54,4.51,13.33,6.77,23.38,6.77,9.23,0,16.82-2.05,22.77-6.36,5.95-4.31,8.82-9.85,8.82-16.82,0-1.85-.21-3.69-.82-5.33-.41-1.64-1.03-3.28-1.84-4.51-.82-1.23-1.85-2.46-3.49-3.69-1.44-1.23-2.67-2.05-3.69-2.87-1.03-.62-2.67-1.44-4.72-2.46-2.05-1.03-3.69-1.64-4.72-2.05-.82-.41-2.67-1.03-5.13-1.85-2.46-.82-3.9-1.44-4.51-1.85-3.9-1.44-6.77-2.46-8.41-3.28-1.64-.62-4.1-1.85-7.18-3.49-3.28-1.64-5.54-3.49-6.97-5.13-1.44-1.64-2.67-3.69-3.9-6.56-1.23-2.67-1.85-5.74-1.85-9.23,0-8.62,3.28-15.38,10.05-20.72,6.77-5.13,15.79-7.79,27.08-7.79,24.2,0,36.31,10.05,36.31,29.95,0,1.23-.21,2.46-.21,3.49ZM685.94,0l-13.74,63.59c10.87-16.82,25.02-25.23,42.26-25.23,9.02,0,16.61,2.46,22.36,7.38,5.74,4.92,8.62,11.49,8.62,19.49,0,4.31-1.03,11.08-3.08,20.51l-12.92,60.31h-8.21l12.72-60.51c1.85-9.03,2.87-15.59,2.87-19.49,0-6.15-2.26-11.28-6.77-14.97-4.51-3.69-10.46-5.54-17.85-5.54-8.82,0-16.41,2.46-22.97,6.97-6.56,4.72-11.49,10.26-14.77,16.82-3.28,6.56-5.95,13.95-7.79,22.56l-11.69,54.15h-8.21L677.74,0h8.21Z" style="fill:#1a1a1a;"/></g></svg>